<?xml version="1.0" encoding="utf-8"?>
<!-- Generator: Adobe Illustrator 25.2.3, SVG Export Plug-In . SVG Version: 6.00 Build 0)  -->
<svg version="1.1" id="Layer_1" xmlns="http://www.w3.org/2000/svg" xmlns:xlink="http://www.w3.org/1999/xlink" x="0px" y="0px"
	 viewBox="0 0 72 72" style="enable-background:new 0 0 72 72;" xml:space="preserve">
<style type="text/css">
	.st0{fill:#0072B1;}
</style>
<g id="Guides">
</g>
<g>
	<path id="LinkedIn_3_" class="st0" d="M72,43.7v26.5H56.6V45.5c0-6.3-2.2-10.5-7.7-10.5c-4.4,0-6.7,3-7.9,5.5
		c-0.4,1-0.6,2.4-0.6,3.8v25.9H24.9c0,0,0.2-41.9,0-46.3h15.4v6.5c0,0,0,0,0,0.2l0,0v-0.2c2-3.2,5.7-7.7,13.8-7.7
		C64.5,22.9,72,29.5,72,43.7z M8.7,1.6C3.4,1.6,0,4.9,0,9.7c0,4.4,3.4,8.1,8.5,8.1l0,0c5.3,0,8.7-3.6,8.7-8.1
		C17.4,5.1,14,1.6,8.7,1.6z M1,70.4h15.4V23.9H1V70.4z"/>
</g>
</svg>
