<?xml version="1.0" encoding="utf-8"?>
<!-- Generator: Adobe Illustrator 26.2.1, SVG Export Plug-In . SVG Version: 6.00 Build 0)  -->
<svg version="1.1" id="Layer_1" xmlns="http://www.w3.org/2000/svg" xmlns:xlink="http://www.w3.org/1999/xlink" x="0px" y="0px"
	 width="24px" height="24px" viewBox="0 0 24 24" style="enable-background:new 0 0 24 24;" xml:space="preserve">
<style type="text/css">
	.st0{fill:#FFFFFF;}
</style>
<path class="st0" d="M12,2.6c-5.2,0-9.5,3.9-9.5,8.7c0,3,1.2,5.3,3.2,6.8h0l0.2,3v0c0,0,0,0,0,0v0c0,0.1,0.2,0.3,0.3,0.3
	c0.1,0,0.1,0,0.1,0l0,0l2.9-1.7c0.9,0.2,1.8,0.3,2.7,0.3c5.2,0,9.5-3.9,9.5-8.7C21.5,6.5,17.2,2.6,12,2.6C12,2.6,12,2.6,12,2.6z
	 M10.4,0.7c0.5-0.1,1.1-0.1,1.6-0.1c0.4,0,0.8,0,1.1,0.1l0.1-0.6C12.8,0,12.4,0,12,0c-0.6,0-1.1,0-1.7,0.1L10.4,0.7
	C10.4,0.7,10.4,0.7,10.4,0.7z M14.2,0.8C15.1,1,16,1.2,16.8,1.6L17,1c-0.1-0.1-0.3-0.1-0.4-0.2c-0.8-0.3-1.6-0.5-2.4-0.7
	C14.3,0.2,14.2,0.8,14.2,0.8z M23.4,11.4c0,0.9-0.2,1.8-0.4,2.7l0.6,0.2c0.3-0.9,0.4-1.9,0.4-2.8L23.4,11.4z M6.7,1.8
	c0.8-0.4,1.7-0.7,2.6-0.9L9.2,0.3C8.6,0.4,7.9,0.6,7.3,0.9C7,1,6.8,1.1,6.5,1.3L6.7,1.8z M20.4,3.2c-0.7-0.6-1.5-1.2-2.3-1.7
	l-0.3,0.5c0.8,0.4,1.6,1,2.2,1.6L20.4,3.2L20.4,3.2z M15.2,22.1c0.9-0.2,1.8-0.6,2.7-1l-0.3-0.5c-0.8,0.4-1.6,0.7-2.5,1L15.2,22.1z
	 M3.7,4C4.3,3.4,5,2.8,5.8,2.3L5.5,1.8C4.8,2.2,4.1,2.7,3.5,3.3C3.4,3.4,3.3,3.5,3.2,3.6L3.7,4C3.7,4,3.7,4,3.7,4z M23.2,15.3
	L22.6,15c-0.3,0.8-0.8,1.6-1.4,2.3l0.5,0.4C22.3,17,22.8,16.2,23.2,15.3L23.2,15.3z M20.7,4.4c0.6,0.7,1.1,1.4,1.5,2.2l0.6-0.3
	c-0.4-0.9-1-1.6-1.6-2.4L20.7,4.4C20.7,4.4,20.7,4.4,20.7,4.4z M23.3,7.4l-0.6,0.2c0.3,0.8,0.5,1.7,0.6,2.6l0.6-0.1
	C23.8,9.3,23.6,8.3,23.3,7.4z M6.4,22.8l-1,0.4l-0.3-1l-0.6,0.2l0.4,1.3C5,23.9,5,23.9,5.1,24c0,0,0.1,0,0.1,0s0.1,0,0.1,0l1.3-0.6
	C6.6,23.4,6.4,22.8,6.4,22.8z M10.2,21.7c-0.1,0-0.2,0-0.2,0l-0.5-0.1c-0.1,0-0.1,0-0.2,0l-2,0.9L7.7,23l1.8-0.8
	c0.1,0,0.2,0,0.4,0.1c0.1,0,0.1,0,0.2,0C10.1,22.3,10.2,21.7,10.2,21.7z M13.9,21.7c-0.6,0.1-1.3,0.2-1.9,0.2c-0.3,0-0.5,0-0.8,0
	l0,0.6c0.3,0,0.5,0,0.8,0c0.7,0,1.4-0.1,2-0.2L13.9,21.7L13.9,21.7z M1.5,7.1c0.4-0.8,0.9-1.6,1.4-2.3L2.5,4.4C1.9,5.2,1.4,6,1,6.8
	l0,0L1.5,7.1z M20.5,18.2c-0.6,0.7-1.3,1.2-2.1,1.7l0.3,0.5c0.8-0.5,1.5-1.1,2.2-1.8C21,18.6,20.5,18.2,20.5,18.2z M1,14.6
	c-0.2-0.8-0.3-1.7-0.3-2.7H0c0,1.1,0.1,2,0.3,2.8C0.4,14.7,1,14.6,1,14.6z M0.5,7.9C0.2,8.8,0.1,9.8,0,10.7l0.6,0
	c0-0.9,0.2-1.8,0.5-2.7L0.5,7.9z M4.7,21.2l-0.6-1.8c0-0.1-0.1-0.1-0.1-0.1c-0.2-0.2-0.4-0.4-0.7-0.6L3,19.1
	c0.2,0.2,0.4,0.4,0.6,0.5l0.6,1.7C4.1,21.4,4.7,21.2,4.7,21.2z M2.6,17.9c-0.6-0.7-1-1.4-1.4-2.3l-0.6,0.2c0,0.1,0.1,0.2,0.1,0.3
	c0.3,0.8,0.8,1.5,1.3,2.2L2.6,17.9z"/>
</svg>
