<?xml version="1.0" encoding="utf-8"?>
<!-- Generator: Adobe Illustrator 25.2.3, SVG Export Plug-In . SVG Version: 6.00 Build 0)  -->
<svg version="1.1" id="Layer_1" xmlns="http://www.w3.org/2000/svg" xmlns:xlink="http://www.w3.org/1999/xlink" x="0px" y="0px"
	 viewBox="0 0 72 72" style="enable-background:new 0 0 72 72;" xml:space="preserve">
<style type="text/css">
	.st0{fill:#1DA1F2;}
</style>
<g id="Guides">
</g>
<g>
	<g>
		<path class="st0" d="M72,13.5c-2.6,1.2-5.4,2-8.4,2.4c3-1.8,5.4-4.8,6.4-8.2c-2.8,1.6-6,3-9.4,3.6C58,8.5,54,6.7,49.8,6.7
			C41.6,6.7,35,13.3,35,21.5c0,1.2,0.2,2.2,0.4,3.4C23.2,24.3,12.2,18.5,5,9.5c-1.2,2.2-2,4.8-2,7.4c0,5.2,2.6,9.6,6.6,12.2
			c-2.4,0-4.6-0.8-6.6-1.8v0.2c0,7.2,5,13.2,11.8,14.4c-1.2,0.4-2.6,0.6-3.8,0.6c-1,0-1.8,0-2.8-0.2C10,48.1,15.6,52.5,22,52.5
			c-5,4-11.4,6.4-18.4,6.4c-1.2,0-2.4,0-3.6-0.2c6.6,4.2,14.2,6.6,22.6,6.6c27.2,0,42-22.4,42-42v-2C67.4,18.9,70,16.3,72,13.5z"/>
	</g>
</g>
</svg>
