<svg width="16" height="35" viewBox="0 0 16 35" fill="none" xmlns="http://www.w3.org/2000/svg">
<path d="M10.0048 1.1655C10.2849 1.26836 10.5492 1.42714 10.784 1.63369L10.8069 1.66305C10.8667 1.71858 10.9231 1.77868 10.9755 1.84287L11.0821 1.97958C11.1327 2.05074 11.189 2.11682 11.2502 2.1769L11.273 2.20627C11.3497 2.2864 11.5419 2.47803 11.8259 2.76923L11.8646 2.80056C11.9489 2.89048 12.2628 3.23832 12.8069 3.82661L12.8222 3.8461C13.067 4.12363 13.2584 4.33277 13.4107 4.52816L13.4182 4.53782C13.7515 4.96553 14.0624 5.41361 14.3493 5.87953C14.485 6.0904 14.6207 6.30131 14.7483 6.51995L14.7635 6.53951C15.1751 7.26963 15.4605 7.74601 15.5957 7.97442C15.854 8.39254 15.9598 8.8956 15.8901 9.37324C15.8203 9.85087 15.5806 10.2641 15.2235 10.5222C14.8664 10.7803 14.4212 10.8623 13.9854 10.7501C13.5497 10.6379 13.159 10.3407 12.8991 9.92379C12.7412 9.66605 12.4335 9.14288 11.999 8.38343C11.8937 8.2116 11.7809 8.03002 11.6756 7.85824L11.668 7.84846C11.5105 7.59752 11.3411 7.35562 11.1606 7.12391C11.6946 11.698 11.3407 16.2736 10.1231 20.5378C8.98925 24.8598 6.60627 29.3881 2.97419 34.1227C2.69704 34.4812 2.29491 34.6919 1.85602 34.7085C1.41712 34.7251 0.977299 34.5463 0.633047 34.2113C0.288795 33.8763 0.0682249 33.4124 0.0197246 32.9215C-0.0287756 32.4306 0.0987581 31.9528 0.374344 31.5927C3.72304 27.2158 5.90815 23.0999 6.92967 19.2452L6.93097 19.2102C7.98425 15.5304 8.3152 11.5882 7.90251 7.63729C6.92029 9.12196 5.84899 10.5281 4.69515 11.8471C4.54613 12.0126 4.36699 12.1413 4.16798 12.2258C3.96897 12.3103 3.75399 12.349 3.53533 12.3396C3.31668 12.3301 3.09865 12.2729 2.89371 12.171C2.68877 12.0691 2.50094 11.9247 2.34097 11.7459C2.181 11.5671 2.05203 11.3575 1.96143 11.129C1.87084 10.9006 1.82039 10.6578 1.81299 10.4146C1.80558 10.1713 1.84136 9.93237 1.91827 9.71142C1.99519 9.49046 2.11173 9.29183 2.26123 9.12687C3.70277 7.44232 5.02817 5.63789 6.22762 3.72695L6.26943 3.67058C6.57702 3.20178 6.85775 2.71085 7.11013 2.20039L7.15198 2.14394C7.22859 2.00397 7.27165 1.91248 7.29761 1.85407C7.35627 1.54426 7.49029 1.264 7.68556 1.04282C7.88083 0.821644 8.13013 0.667712 8.40721 0.597234C8.6843 0.526756 8.97892 0.542338 9.26007 0.642341C9.54122 0.742341 9.79849 0.923075 10.0048 1.1655Z" fill="#C80FFF"/>
<path d="M14.3529 5.87748L14.355 5.88061L14.3526 5.87634L14.3529 5.87748Z" fill="#C80FFF"/>
</svg>
