<?xml version="1.0" encoding="utf-8"?>
<!-- Generator: Adobe Illustrator 26.2.1, SVG Export Plug-In . SVG Version: 6.00 Build 0)  -->
<svg version="1.1" id="Layer_1" xmlns="http://www.w3.org/2000/svg" xmlns:xlink="http://www.w3.org/1999/xlink" x="0px" y="0px"
	 width="740.8px" height="740.8px" viewBox="0 0 740.8 740.8" style="enable-background:new 0 0 740.8 740.8;" xml:space="preserve"
	>
<style type="text/css">
	.st0{fill-rule:evenodd;clip-rule:evenodd;fill:#FFFFFF;}
</style>
<path class="st0" d="M631.7,107.7C562.4,38.3,470.2,0,372,0C169.6,0,4.8,164.7,4.7,367.1c0,64.7,16.9,127.9,49,183.5L1.7,740.8
	l194.7-51c53.6,29.2,114,44.7,175.5,44.7h0.2c202.4,0,367.1-164.7,367.2-367.1C739.2,269.3,701,177,631.7,107.7 M372,672.5h-0.1
	c-54.8,0-108.5-14.7-155.3-42.5l-11.1-6.6L89.8,653.6L120.7,541l-7.3-11.5c-30.6-48.6-46.7-104.7-46.7-162.4
	C66.8,198.9,203.7,62,372.1,62c81.5,0,158.2,31.8,215.8,89.5s89.3,134.3,89.3,215.9C677.1,535.6,540.2,672.5,372,672.5 M539.4,443.9
	c-9.2-4.6-54.3-26.8-62.7-29.8c-8.4-3.1-14.5-4.6-20.6,4.6c-6.1,9.2-23.7,29.8-29.1,36c-5.4,6.1-10.7,6.9-19.9,2.3
	c-9.2-4.6-38.7-14.3-73.8-45.5c-27.3-24.3-45.7-54.4-51-63.5c-5.4-9.2-0.6-14.1,4-18.7c4.1-4.1,9.2-10.7,13.8-16.1
	c4.6-5.4,6.1-9.2,9.2-15.3c3.1-6.1,1.5-11.5-0.8-16.1s-20.6-49.7-28.3-68.1c-7.4-17.9-15-15.5-20.6-15.7c-5.3-0.3-11.5-0.3-17.6-0.3
	c-6.1,0-16.1,2.3-24.5,11.5c-8.4,9.2-32.1,31.4-32.1,76.5s32.9,88.8,37.5,94.9c4.6,6.1,64.7,98.8,156.7,138.5
	c21.9,9.5,39,15.1,52.3,19.3c22,7,42,6,57.8,3.6c17.6-2.6,54.3-22.2,61.9-43.6c7.6-21.4,7.6-39.8,5.4-43.6
	C554.7,450.8,548.5,448.5,539.4,443.9"/>
</svg>
